<svg width="64" height="64" viewBox="0 0 64 64" fill="none" xmlns="http://www.w3.org/2000/svg">
<path d="M32 9C34.2031 9 36.3281 9.28125 38.375 9.84375C40.4219 10.4062 42.3281 11.2188 44.0938 12.2812C45.8594 13.3437 47.4766 14.5938 48.9453 16.0312C50.4141 17.4687 51.6719 19.0859 52.7188 20.8828C53.7656 22.6797 54.5703 24.5938 55.1328 26.625C55.6953 28.6562 55.9844 30.7813 56 33C56 35.5781 55.6094 38.0625 54.8281 40.4531C54.0469 42.8438 52.9297 45.0391 51.4766 47.0391C50.0234 49.0391 48.2969 50.7891 46.2969 52.2891C44.2969 53.7891 42.0625 54.9531 39.5938 55.7812C39.5469 55.7969 39.4766 55.8047 39.3828 55.8047C39.2891 55.8047 39.2188 55.8125 39.1719 55.8281C38.7969 55.8281 38.5 55.7187 38.2812 55.5C38.0625 55.2813 37.9531 54.9922 37.9531 54.6328V51.3516C37.9531 50.2734 37.9609 49.1719 37.9766 48.0469C37.9766 47.25 37.8594 46.4453 37.625 45.6328C37.3906 44.8203 36.9688 44.1406 36.3594 43.5938C38.1719 43.3906 39.7578 43.0234 41.1172 42.4922C42.4766 41.9609 43.6172 41.2109 44.5391 40.2422C45.4609 39.2734 46.1484 38.1016 46.6016 36.7266C47.0547 35.3516 47.2891 33.6953 47.3047 31.7578C47.3047 30.5391 47.1016 29.3906 46.6953 28.3125C46.2891 27.2344 45.6719 26.2344 44.8438 25.3125C45.0156 24.875 45.1406 24.4219 45.2188 23.9531C45.2969 23.4844 45.3359 23.0156 45.3359 22.5469C45.3359 21.9375 45.2734 21.3359 45.1484 20.7422C45.0234 20.1484 44.8438 19.5547 44.6094 18.9609C44.5313 18.9297 44.4453 18.9141 44.3516 18.9141C44.2578 18.9141 44.1719 18.9141 44.0938 18.9141C43.5937 18.9141 43.0703 18.9922 42.5234 19.1484C41.9766 19.3047 41.4375 19.5078 40.9062 19.7578C40.375 20.0078 39.8516 20.2812 39.3359 20.5781C38.8203 20.875 38.375 21.1563 38 21.4219C36.0469 20.875 34.0469 20.6016 32 20.6016C29.9531 20.6016 27.9531 20.875 26 21.4219C25.6094 21.1563 25.1641 20.875 24.6641 20.5781C24.1641 20.2812 23.6484 20.0156 23.1172 19.7812C22.5859 19.5469 22.0391 19.3438 21.4766 19.1719C20.9141 19 20.3906 18.9141 19.9062 18.9141H19.6484C19.5547 18.9141 19.4687 18.9297 19.3906 18.9609C19.1719 19.5391 19 20.125 18.875 20.7188C18.75 21.3125 18.6797 21.9219 18.6641 22.5469C18.6641 23.0156 18.7031 23.4844 18.7812 23.9531C18.8594 24.4219 18.9844 24.875 19.1562 25.3125C18.3281 26.2188 17.7109 27.2109 17.3047 28.2891C16.8984 29.3672 16.6953 30.5234 16.6953 31.7578C16.6953 33.6641 16.9219 35.3125 17.375 36.7031C17.8281 38.0937 18.5156 39.2656 19.4375 40.2188C20.3594 41.1719 21.5 41.9297 22.8594 42.4922C24.2188 43.0547 25.8047 43.4297 27.6172 43.6172C27.1641 44.0234 26.8203 44.5078 26.5859 45.0703C26.3516 45.6328 26.1875 46.2188 26.0938 46.8281C25.6719 47.0313 25.2266 47.1875 24.7578 47.2969C24.2891 47.4062 23.8203 47.4609 23.3516 47.4609C22.3516 47.4609 21.5234 47.2266 20.8672 46.7578C20.2109 46.2891 19.625 45.6484 19.1094 44.8359C18.9219 44.5391 18.6953 44.2422 18.4297 43.9453C18.1641 43.6484 17.875 43.3828 17.5625 43.1484C17.25 42.9141 16.9141 42.7266 16.5547 42.5859C16.1953 42.4453 15.8203 42.3672 15.4297 42.3516H15.1484C15.0234 42.3516 14.9062 42.375 14.7969 42.4219C14.6875 42.4688 14.5781 42.5156 14.4688 42.5625C14.3594 42.6094 14.3125 42.6875 14.3281 42.7969C14.3281 42.9844 14.4375 43.1641 14.6562 43.3359C14.875 43.5078 15.0547 43.6484 15.1953 43.7578L15.2656 43.8047C15.6094 44.0703 15.9062 44.3203 16.1562 44.5547C16.4063 44.7891 16.6406 45.0469 16.8594 45.3281C17.0781 45.6094 17.2578 45.9063 17.3984 46.2188C17.5391 46.5312 17.7188 46.8984 17.9375 47.3203C18.4687 48.5391 19.2109 49.4219 20.1641 49.9688C21.1172 50.5156 22.2656 50.7969 23.6094 50.8125C24.0156 50.8125 24.4219 50.7891 24.8281 50.7422C25.2344 50.6953 25.6406 50.625 26.0469 50.5312V54.6094C26.0469 54.9844 25.9375 55.2813 25.7188 55.5C25.5 55.7187 25.1953 55.8281 24.8047 55.8281H24.6172C24.5391 55.8281 24.4688 55.8125 24.4062 55.7812C21.9531 54.9844 19.7188 53.8359 17.7031 52.3359C15.6875 50.8359 13.9609 49.0781 12.5234 47.0625C11.0859 45.0469 9.97656 42.8438 9.19531 40.4531C8.41406 38.0625 8.01563 35.5781 8 33C8 30.7969 8.28125 28.6719 8.84375 26.625C9.40625 24.5781 10.2188 22.6719 11.2812 20.9062C12.3437 19.1406 13.5938 17.5234 15.0312 16.0547C16.4687 14.5859 18.0859 13.3281 19.8828 12.2812C21.6797 11.2344 23.5938 10.4297 25.625 9.86719C27.6562 9.30469 29.7813 9.01563 32 9Z" fill="#406473"/>
</svg>
