<svg width="100" height="100" viewBox="0 0 100 100" fill="none" xmlns="http://www.w3.org/2000/svg">
<g clip-path="url(#clip0_1417_331)">
<circle cx="50" cy="50" r="50" fill="#3E6573"/>
<path d="M38.008 30.2L37.944 66.104C37.944 67.4267 38.3067 68.4293 39.032 69.112C39.8 69.7947 40.8453 70.136 42.168 70.136H45.112L45.816 74.68C45.3893 74.8933 44.792 75.064 44.024 75.192C43.2987 75.32 42.5307 75.4053 41.72 75.448C40.952 75.5333 40.2907 75.576 39.736 75.576C37.3467 75.576 35.4267 74.8933 33.976 73.528C32.568 72.1627 31.864 70.1787 31.864 67.576V30.2H38.008ZM65.319 30.84V75H58.919V40.696C58.919 40.0133 58.9403 39.352 58.983 38.712C59.0257 38.0293 59.111 37.3467 59.239 36.664L48.487 39.928L47.655 35.384L58.919 30.84H65.319Z" fill="white"/>
</g>
<defs>
<clipPath id="clip0_1417_331">
<rect width="100" height="100" fill="white"/>
</clipPath>
</defs>
</svg>
